<svg xmlns="http://www.w3.org/2000/svg" viewBox="0 0 56.64 15.71"><path d="M20,46.28h-6.2V35.08h1.86v9.63H20Z" transform="translate(-13.76 -34.39)" style="fill:#fc3;stroke:#fc3;stroke-miterlimit:10;stroke-width:0.10000000149011612px"/><path d="M29.8,42.77H24.34A2.28,2.28,0,0,0,25,44.48a2.53,2.53,0,0,0,1.79.6,4,4,0,0,0,2.35-.76v1.46a5.35,5.35,0,0,1-2.89.69,3.6,3.6,0,0,1-2.77-1.09,4.37,4.37,0,0,1-1-3.07,4.28,4.28,0,0,1,1.1-3,3.62,3.62,0,0,1,2.75-1.18,3.14,3.14,0,0,1,2.54,1.06,4.37,4.37,0,0,1,.9,2.93Zm-1.75-1.28A2.37,2.37,0,0,0,27.59,40a1.56,1.56,0,0,0-1.25-.54A1.75,1.75,0,0,0,25,40a2.67,2.67,0,0,0-.67,1.49Z" transform="translate(-13.76 -34.39)" style="fill:#fc3;stroke:#fc3;stroke-miterlimit:10;stroke-width:0.10000000149011612px"/><path d="M40.4,46.28H38.58V44.92h0a3.12,3.12,0,0,1-5.06.47,4.44,4.44,0,0,1-.88-2.92,4.8,4.8,0,0,1,1-3.18,3.19,3.19,0,0,1,2.61-1.2,2.49,2.49,0,0,1,2.35,1.3h0v-5H40.4Zm-1.79-3.66v-1a2.06,2.06,0,0,0-.56-1.45,1.86,1.86,0,0,0-1.41-.59,1.9,1.9,0,0,0-1.6.76,3.34,3.34,0,0,0-.58,2.1A3,3,0,0,0,35,44.32a1.81,1.81,0,0,0,1.5.71A1.91,1.91,0,0,0,38,44.35,2.62,2.62,0,0,0,38.61,42.62Z" transform="translate(-13.76 -34.39)" style="fill:#fc3;stroke:#fc3;stroke-miterlimit:10;stroke-width:0.10000000149011612px"/><path d="M51.65,45.64c0,2.94-1.48,4.4-4.43,4.4a6.58,6.58,0,0,1-2.73-.52V47.87a5,5,0,0,0,2.49.75c1.9,0,2.85-.94,2.85-2.81v-.87h0a3.14,3.14,0,0,1-5.06.46,4.33,4.33,0,0,1-.89-2.86,5,5,0,0,1,1-3.24,3.18,3.18,0,0,1,2.64-1.21,2.53,2.53,0,0,1,2.35,1.3h0V38.28h1.82Zm-1.8-3v-1a2,2,0,0,0-.56-1.44,1.82,1.82,0,0,0-1.39-.6,1.92,1.92,0,0,0-1.62.76,3.44,3.44,0,0,0-.58,2.13,3,3,0,0,0,.56,1.88,1.77,1.77,0,0,0,1.48.71,1.92,1.92,0,0,0,1.52-.67A2.56,2.56,0,0,0,49.85,42.62Z" transform="translate(-13.76 -34.39)" style="fill:#fc3;stroke:#fc3;stroke-miterlimit:10;stroke-width:0.10000000149011612px"/><path d="M62.38,42.77H56.92a2.32,2.32,0,0,0,.69,1.71,2.53,2.53,0,0,0,1.79.6,3.93,3.93,0,0,0,2.35-.76v1.46a5.35,5.35,0,0,1-2.89.69,3.61,3.61,0,0,1-2.77-1.09,4.37,4.37,0,0,1-1-3.07,4.28,4.28,0,0,1,1.1-3,3.62,3.62,0,0,1,2.75-1.18,3.14,3.14,0,0,1,2.54,1.06,4.37,4.37,0,0,1,.9,2.93Zm-1.75-1.28A2.37,2.37,0,0,0,60.17,40a1.54,1.54,0,0,0-1.25-.54,1.79,1.79,0,0,0-1.33.57,2.67,2.67,0,0,0-.67,1.49Z" transform="translate(-13.76 -34.39)" style="fill:#fc3;stroke:#fc3;stroke-miterlimit:10;stroke-width:0.10000000149011612px"/><path d="M70.34,40a1.42,1.42,0,0,0-.94-.26,1.6,1.6,0,0,0-1.34.73,3.22,3.22,0,0,0-.54,2v3.83H65.7v-8h1.82v1.65h0a2.83,2.83,0,0,1,.81-1.32,1.88,1.88,0,0,1,1.23-.47,1.5,1.5,0,0,1,.75.15Z" transform="translate(-13.76 -34.39)" style="fill:#fc3;stroke:#fc3;stroke-miterlimit:10;stroke-width:0.10000000149011612px"/></svg>